<svg xmlns="http://www.w3.org/2000/svg" width="38.197" height="34.355" viewBox="0 0 38.197 34.355" color="#f87d4e">
    <g data-name="money (1)">
        <path data-name="Path 172" d="M37.019 43.282a3.22 3.22 0 0 0-1.979-.809 13.152 13.152 0 0 0-1.778-12.6.758.758 0 0 0-1.045-.157.722.722 0 0 0-.16 1.023 11.706 11.706 0 0 1 1.188 12.127 3.048 3.048 0 0 0-.581.412l-5.056 4.57c-.075.068-.417.289-1.68.289h-.024l-7.287-.015h-1.076a.982.982 0 0 1-1.05-.893 1 1 0 0 1 1.05-.9h4.791a2.676 2.676 0 0 0 2.772-2.562 2.38 2.38 0 0 0-.032-.387 3.3 3.3 0 0 0 1.991-3.02 3.341 3.341 0 0 0-3.363-3.306h-2.881a1.851 1.851 0 1 1 0-3.7h5.5a.732.732 0 1 0 0-1.463h-3.325V30.13a.74.74 0 0 0-.746-.733.74.74 0 0 0-.747.73v1.765h-.68a3.314 3.314 0 1 0 0 6.627H23.7a1.842 1.842 0 0 1 .7 3.555 2.868 2.868 0 0 0-2.07-.86H10.6a11.733 11.733 0 0 1-.19-6.159q.134.086.271.166a2.086 2.086 0 0 0 1.049.362 2.1 2.1 0 0 0 1.05-.361 10.782 10.782 0 0 0 3.852-4.268 11.985 11.985 0 0 0 1.441-4.354 12.425 12.425 0 0 1 9.11.3.759.759 0 0 0 .3.063.749.749 0 0 0 .683-.434.726.726 0 0 0-.379-.966 13.961 13.961 0 0 0-9.68-.519c-.105-.8-.525-1.059-1.157-1.392l-4.865-2.57a.762.762 0 0 0-.71 0l-4.864 2.569a1.711 1.711 0 0 0-1.183 1.789 11.4 11.4 0 0 0 1.5 5.512 12.585 12.585 0 0 0 2.308 3.092A13.161 13.161 0 0 0 9.1 41.4a5.908 5.908 0 0 0-1.79.785 2.619 2.619 0 0 0-2.61-1.991H2.659A2.568 2.568 0 0 0 0 42.655v9.758a2.568 2.568 0 0 0 2.659 2.459H4.7a2.568 2.568 0 0 0 2.659-2.459V52.4l4.741 2.077.048.019c1.468.528 3.342.563 8.546.59h5.2c1.882 0 2.844-.167 3.916-1.2q3.346-3.028 6.695-6.054l.512-.463a2.718 2.718 0 0 0 0-4.092zM5.866 52.413a1.091 1.091 0 0 1-1.164 1H2.659a1.091 1.091 0 0 1-1.164-1v-9.758a1.105 1.105 0 0 1 1.164-1H4.7a1.105 1.105 0 0 1 1.164 1v9.758zM8.148 30.26a9.966 9.966 0 0 1-1.325-4.808 1.427 1.427 0 0 1 .023-.3 3.645 3.645 0 0 1 .373-.212l4.514-2.384 4.493 2.373.018.01a3.648 3.648 0 0 1 .374.212 1.45 1.45 0 0 1 .023.3 9.943 9.943 0 0 1-1.325 4.807 9.353 9.353 0 0 1-3.3 3.7 2.188 2.188 0 0 1-.283.148 2.2 2.2 0 0 1-.281-.148 9.483 9.483 0 0 1-3.3-3.7zM36 46.3l-.513.463q-3.354 3.032-6.7 6.062l-.018.017c-.63.609-1.083.786-2.875.786h-5.2c-4.764-.024-6.764-.052-8.012-.492l-5.321-2.342v-6.732a4.344 4.344 0 0 1 3.209-1.388h11.763a1.317 1.317 0 0 1 1.13.588l.012.022a.969.969 0 0 1 .135.489 1.2 1.2 0 0 1-1.277 1.1h-4.79a2.364 2.364 0 1 0 0 4.715h1.075c2.281 0 5.3.009 7.286.015h.027a3.973 3.973 0 0 0 2.7-.678l5.056-4.57a1.793 1.793 0 0 1 2.325 0A1.276 1.276 0 0 1 36 46.3z" transform="translate(.125 -20.86)" style="fill:#f87d4e;stroke:#f87d4e;stroke-width:.25px"/>
        <path data-name="Path 173" d="M400.52 108.714a.925.925 0 0 0 .654-1.579.925.925 0 1 0-.651 1.581z" transform="translate(-370.142 -100.575)" style="fill:#f87d4e;stroke:#f87d4e;stroke-width:.25px"/>
        <path data-name="Path 174" d="M129.135 93.8a.922.922 0 0 0 .662-.279l3.263-3.348a.925.925 0 0 0-1.324-1.291l-2.631 2.7-.913-.855a.925.925 0 0 0-1.264 1.35l1.575 1.474a.922.922 0 0 0 .632.249z" transform="translate(-117.495 -82.268)" style="fill:#f87d4e;stroke:#f87d4e;stroke-width:.25px"/>
    </g>
</svg>
